<?xml version="1.0" encoding="UTF-8"?>
<svg version="1.1" xmlns="http://www.w3.org/2000/svg" width="500" height="500">
<path d="M0 0 C165 0 330 0 500 0 C500 165 500 330 500 500 C335 500 170 500 0 500 C0 335 0 170 0 0 Z " fill="#FEFEFE" transform="translate(0,0)"/>
<path d="M0 0 C1.58291579 -0.00903012 3.16584668 -0.01543431 4.7487793 -0.02075195 C5.63027145 -0.02460403 6.51176361 -0.02845612 7.41996765 -0.03242493 C17.92283893 0.09957142 33.98021487 0.89022543 42.5 7.3125 C43.325 7.869375 44.15 8.42625 45 9 C47.46955394 8.58377402 47.46955394 8.58377402 50 7 C62.76444526 0.69405892 76.85927138 -0.79206717 91 0 C93.31851154 2.31851154 92.60627032 7.72544693 92.66845703 10.91967773 C92.57599057 14.33444135 92.43012134 16.48572449 90.203125 19.1484375 C87.875 20.5625 87.875 20.5625 85.38671875 21.796875 C79.67986312 24.67365329 76.07124338 30.56391123 73.68359375 36.33984375 C71.70734008 44.03029375 72.78892413 52.2609298 74 60 C73.16190796 60.18792114 73.16190796 60.18792114 72.30688477 60.37963867 C69.72192338 60.96791815 67.14243387 61.57756503 64.5625 62.1875 C63.68400391 62.38408203 62.80550781 62.58066406 61.90039062 62.78320312 C57.16580389 63.91880511 53.30912014 65.25869589 49.13671875 67.80078125 C45.31435789 70.06023624 45.31435789 70.06023624 42.390625 69.5 C41.68421875 69.005 40.9778125 68.51 40.25 68 C30.34698361 62.1186666 19.15867109 61.55025375 7.89526367 60.64575195 C7.01717041 60.57445068 6.13907715 60.50314941 5.234375 60.4296875 C4.44256836 60.37022949 3.65076172 60.31077148 2.83496094 60.24951172 C1 60 1 60 0 59 C-0.09381302 57.15881971 -0.11743954 55.31402359 -0.11352539 53.47045898 C-0.11344986 52.28931015 -0.11337433 51.10816132 -0.11329651 49.89122009 C-0.10813522 48.6058284 -0.10297394 47.32043671 -0.09765625 45.99609375 C-0.0962413 44.68794205 -0.09482635 43.37979034 -0.09336853 42.03199768 C-0.0895441 38.54837141 -0.07971446 35.06478661 -0.06866455 31.58117676 C-0.05844882 28.02873292 -0.05387056 24.47628241 -0.04882812 20.92382812 C-0.03809212 13.94920168 -0.0210166 6.97460283 0 0 Z " fill="#6052FD" transform="translate(72,173)"/>
<path d="M0 0 C1.44472687 -0.01073296 1.44472687 -0.01073296 2.91864014 -0.02168274 C3.97892929 -0.02437164 5.03921844 -0.02706055 6.13163757 -0.02983093 C7.24555878 -0.03640213 8.35947998 -0.04297333 9.50715637 -0.04974365 C13.20579591 -0.06950896 16.9043948 -0.08114589 20.60307312 -0.09111023 C21.86374289 -0.09518576 23.12441265 -0.09926128 24.42328453 -0.10346031 C30.4060417 -0.1221799 36.38877412 -0.13674315 42.37155277 -0.14507228 C49.27665919 -0.15484424 56.18144502 -0.18116213 63.08643848 -0.22157317 C69.06759392 -0.25537566 75.04859376 -0.26721757 81.02985191 -0.27127647 C83.57400373 -0.2761567 86.11815177 -0.2878112 88.66224098 -0.30631447 C92.22000978 -0.33058363 95.77693686 -0.32976288 99.33476257 -0.32279968 C100.38897903 -0.33560974 101.4431955 -0.3484198 102.52935791 -0.36161804 C109.67479729 -0.31055168 109.67479729 -0.31055168 113.55807495 2.05154419 C116.61391512 5.47752465 116.54688278 7.51144292 116.52494812 12.02998352 C116.52172546 13.19658508 116.51850281 14.36318665 116.5151825 15.56513977 C116.50680359 16.78846008 116.49842468 18.0117804 116.48979187 19.27217102 C116.48528015 20.50322571 116.48076843 21.7342804 116.47612 23.00263977 C116.46430517 26.05086494 116.44783215 29.09899416 116.42729187 32.14717102 C114.11729187 32.14717102 111.80729187 32.14717102 109.42729187 32.14717102 C109.09729187 24.55717102 108.76729187 16.96717102 108.42729187 9.14717102 C105.22338076 8.34619324 103.08990767 8.02315387 99.88414001 8.0269165 C98.97832687 8.02554184 98.07251373 8.02416718 97.13925171 8.02275085 C96.15310379 8.02634613 95.16695587 8.02994141 94.15092468 8.03364563 C93.10670853 8.0334996 92.06249237 8.03335358 90.9866333 8.03320312 C87.53454004 8.03389989 84.08250071 8.04168129 80.63041687 8.04951477 C78.23716766 8.05137979 75.84391806 8.0528033 73.45066833 8.05380249 C67.15093431 8.05762106 60.85122333 8.06744575 54.55149841 8.07850647 C46.99324011 8.090533 39.43497411 8.09512597 31.87670898 8.10095978 C20.39355392 8.11065782 8.91044942 8.12981904 -2.57270813 8.14717102 C-2.57270813 35.86717102 -2.57270813 63.58717102 -2.57270813 92.14717102 C1.48617306 92.82365122 4.67910838 93.27085321 8.67756653 93.26069641 C9.68973236 93.26062592 10.70189819 93.26055542 11.74473572 93.26048279 C12.83896851 93.25531647 13.93320129 93.25015015 15.06059265 93.24482727 C16.80791183 93.24263687 16.80791183 93.24263687 18.5905304 93.24040222 C21.11466522 93.23660244 23.6387974 93.23049243 26.16292191 93.22233582 C30.155088 93.20956712 34.14723829 93.20291055 38.13941956 93.19819641 C46.61039196 93.18711677 55.08133756 93.16757171 63.55229187 93.14717102 C72.70519291 93.12514106 81.85808304 93.10457119 91.01100528 93.09375286 C95.61806601 93.08797144 100.22506857 93.0743916 104.83210754 93.05952454 C107.23899799 93.05589295 109.64588887 93.0525411 112.05278015 93.04951477 C113.1510614 93.04434845 114.24934265 93.03918213 115.38090515 93.03385925 C116.89069443 93.03375351 116.89069443 93.03375351 118.4309845 93.03364563 C119.30442568 93.03142502 120.17786686 93.02920441 121.07777596 93.0269165 C123.32957502 93.14216961 125.26847661 93.51668533 127.42729187 94.14717102 C126.80425574 100.6890504 124.34580268 104.38337307 119.5512085 108.7913208 C114.45946742 112.30361027 109.05437809 111.83896657 103.06962585 111.77827454 C101.83953796 111.78542984 100.60945007 111.79258514 99.34208679 111.79995728 C95.98420826 111.81392702 92.62788 111.80558097 89.27012897 111.78586698 C85.74821289 111.76942313 82.22634511 111.77830114 78.70440674 111.78338623 C72.79232595 111.78790024 66.88056228 111.77207927 60.96855164 111.74409485 C54.14224466 111.71203091 47.31650897 111.71206647 40.49016136 111.72930962 C33.91040186 111.7451947 27.33085096 111.73842948 20.75110054 111.7213726 C17.95654276 111.71451635 15.16215291 111.71551971 12.36759758 111.72291756 C8.46336604 111.73202871 4.55971748 111.7080021 0.65556335 111.68061829 C-0.49941147 111.68714417 -1.65438629 111.69367004 -2.84436035 111.70039368 C-9.06215169 111.6262249 -12.86815926 111.35850422 -17.57270813 107.14717102 C-21.57684179 102.60193821 -22.83124777 100.22285247 -22.57270813 94.14717102 C-21.57270813 93.14717102 -21.57270813 93.14717102 -19.28755188 93.04951477 C-18.37102844 93.06111633 -17.454505 93.0727179 -16.51020813 93.08467102 C-15.13155579 93.09820618 -15.13155579 93.09820618 -13.72505188 93.11201477 C-12.65964172 93.12941711 -12.65964172 93.12941711 -11.57270813 93.14717102 C-11.58381119 92.06833145 -11.59491425 90.98949188 -11.60635376 89.87796021 C-11.70771361 79.71075538 -11.78266582 69.54365307 -11.83176899 59.37605762 C-11.85786228 54.14875035 -11.89325581 48.92185096 -11.9499054 43.69477844 C-12.00423418 38.65027547 -12.03413068 33.60616479 -12.04709435 28.56139183 C-12.05633264 26.63682059 -12.07437308 24.71227081 -12.10135841 22.78786659 C-12.13766059 20.09181459 -12.14265305 17.3973832 -12.14033508 14.7011261 C-12.15831146 13.90558823 -12.17628784 13.11005035 -12.19480896 12.29040527 C-12.15679968 8.20428254 -11.77102879 6.39170076 -9.16223145 3.17504883 C-5.76976143 0.51837661 -4.21723404 0.02146245 0 0 Z " fill="#046EF1" transform="translate(65.57270812988281,154.8528289794922)"/>
<path d="M0 0 C0.37125 1.134375 0.7425 2.26875 1.125 3.4375 C1.88707653 5.37070623 1.88707653 5.37070623 3 7 C6.34524238 8.20998129 8.06257649 8.3700356 11.375 7.0625 C11.91125 6.711875 12.4475 6.36125 13 6 C15.475 9.465 15.475 9.465 18 13 C17.34 13.99 16.68 14.98 16 16 C16.32126128 18.63434254 16.81355048 20.62710097 18 23 C21.02934491 23.65772428 21.02934491 23.65772428 24 24 C24 26.64 24 29.28 24 32 C22.865625 32.37125 21.73125 32.7425 20.5625 33.125 C18.62929377 33.88707653 18.62929377 33.88707653 17 35 C15.79001871 38.34524238 15.6299644 40.06257649 16.9375 43.375 C17.288125 43.91125 17.63875 44.4475 18 45 C16.35 46.65 14.7 48.3 13 50 C11.9275 49.62875 10.855 49.2575 9.75 48.875 C6.22836878 47.75965601 6.22836878 47.75965601 3.625 48.5625 C1.42634264 50.50746613 1.30079524 52.14244521 1 55 C-1.97 55 -4.94 55 -8 55 C-8.33 53.02 -8.66 51.04 -9 49 C-14.28199593 47.80011955 -14.28199593 47.80011955 -19 50 C-21.96076291 49.64111965 -22.84658021 49.15341979 -25 47 C-24.63723355 44.17042171 -23.90305236 41.70915709 -23 39 C-23.39397335 36.36195411 -23.39397335 36.36195411 -24 34 C-26.31 33.67 -28.62 33.34 -31 33 C-31 30.03 -31 27.06 -31 24 C-29.02 23.34 -27.04 22.68 -25 22 C-24.03535196 17.39556348 -24.03535196 17.39556348 -24.75 12.875 C-24.87375 11.946875 -24.87375 11.946875 -25 11 C-22.5625 8.25 -22.5625 8.25 -20 6 C-19.34 6.66 -18.68 7.32 -18 8 C-16.0068433 8.02375926 -16.0068433 8.02375926 -13.875 7.625 C-11.956875 7.315625 -11.956875 7.315625 -10 7 C-9.731875 6.030625 -9.46375 5.06125 -9.1875 4.0625 C-8.795625 3.051875 -8.40375 2.04125 -8 1 C-5.07175348 0.02391783 -3.04386724 -0.08226668 0 0 Z " fill="#84D918" transform="translate(179,192)"/>
<path d="M0 0 C2.97 0 5.94 0 9 0 C9 16.83 9 33.66 9 51 C6.03 51 3.06 51 0 51 C-0.33 49.68 -0.66 48.36 -1 47 C-1.61875 47.66 -2.2375 48.32 -2.875 49 C-7.2545792 51.80293069 -10.92889172 51.68505911 -16 51 C-20.24997984 49.28192304 -22.0080784 47.08343928 -24 43 C-26.04360686 36.59953683 -25.91122086 28.83490935 -23.875 22.5 C-18.54299754 15.39066339 -18.54299754 15.39066339 -13.3046875 14.5859375 C-7.69131186 14.42127848 -5.68072186 14.4894586 -1 18 C-0.67 12.06 -0.34 6.12 0 0 Z " fill="#1378F3" transform="translate(424,185)"/>
<path d="M0 0 C10.23 0 20.46 0 31 0 C31 2.64 31 5.28 31 8 C23.74 8 16.48 8 9 8 C9 11.63 9 15.26 9 19 C15.6 19 22.2 19 29 19 C29 21.64 29 24.28 29 27 C22.4 27 15.8 27 9 27 C9 31.29 9 35.58 9 40 C16.59 40 24.18 40 32 40 C32 42.64 32 45.28 32 48 C21.44 48 10.88 48 0 48 C0 32.16 0 16.32 0 0 Z " fill="#1077F3" transform="translate(361,188)"/>
<path d="M0 0 C2.97 0 5.94 0 9 0 C9.33 6.27 9.66 12.54 10 19 C11.65 17.68 13.3 16.36 15 15 C18.7422533 14.2203639 22.23995355 14.33380558 26 15 C29.41311667 17.52570633 30.66637768 18.99913304 32 23 C32.0833804 25.13794525 32.10733747 27.27842009 32.09765625 29.41796875 C32.09443359 30.67158203 32.09121094 31.92519531 32.08789062 33.21679688 C32.07532227 35.18229492 32.07532227 35.18229492 32.0625 37.1875 C32.05748317 38.52278481 32.05292059 39.85807141 32.04882812 41.19335938 C32.03702695 44.46228473 32.02056297 47.73111991 32 51 C29.03 51 26.06 51 23 51 C22.97494385 50.21761963 22.9498877 49.43523926 22.92407227 48.62915039 C22.80850212 45.10675051 22.68560051 41.5846444 22.5625 38.0625 C22.52318359 36.83080078 22.48386719 35.59910156 22.44335938 34.33007812 C22.40146484 33.16025391 22.35957031 31.99042969 22.31640625 30.78515625 C22.27974854 29.70113525 22.24309082 28.61711426 22.20532227 27.50024414 C22.27635735 25.060737 22.27635735 25.060737 21 24 C15.90622152 23.37811279 15.90622152 23.37811279 11.40649414 25.17407227 C9.48416922 27.66965777 9.571065 29.41374294 9.48828125 32.54296875 C9.45283203 33.61611328 9.41738281 34.68925781 9.38085938 35.79492188 C9.34702148 37.47424805 9.34702148 37.47424805 9.3125 39.1875 C9.27833984 40.31865234 9.24417969 41.44980469 9.20898438 42.61523438 C9.12643686 45.4100574 9.05730818 48.20456398 9 51 C6.03 51 3.06 51 0 51 C0 34.17 0 17.34 0 0 Z " fill="#1479F3" transform="translate(318,185)"/>
<path d="M0 0 C4.27421176 1.49972343 6.68223141 3.09638974 9 7 C10 10 10 10 10 20 C2.08 20 -5.84 20 -14 20 C-11.66151858 25.91731018 -11.66151858 25.91731018 -8 28 C-2.73819436 28.70157408 -0.14647225 27.15921695 4 24 C5.65 24.99 7.3 25.98 9 27 C8.45712148 30.80014965 6.88535357 32.53896313 4 35 C0.69664934 36.10111689 -1.89832137 36.20226528 -5.375 36.25 C-6.49648438 36.27578125 -7.61796875 36.3015625 -8.7734375 36.328125 C-14.10772116 35.78565548 -17.58231503 33.006941 -21 29 C-24.09691014 22.59603225 -24.06799222 15.26330955 -21.875 8.5625 C-15.86271771 0.34571421 -9.78726891 -0.71645367 0 0 Z " fill="#1479F3" transform="translate(263,200)"/>
<path d="M0 0 C2.97 0 5.94 0 9 0 C9.01981934 0.74161377 9.03963867 1.48322754 9.06005859 2.24731445 C9.15522928 5.60273834 9.26494094 8.95753286 9.375 12.3125 C9.4059375 13.47974609 9.436875 14.64699219 9.46875 15.84960938 C9.50742187 16.96787109 9.54609375 18.08613281 9.5859375 19.23828125 C9.6173584 20.26993408 9.6487793 21.30158691 9.68115234 22.36450195 C9.82674629 25.22843236 9.82674629 25.22843236 12 28 C16.82437855 27.80113428 16.82437855 27.80113428 20.69848633 25.29199219 C22.2578244 22.54596595 22.42433235 20.72403533 22.51171875 17.578125 C22.54716797 16.55332031 22.58261719 15.52851563 22.61914062 14.47265625 C22.64169922 13.40917969 22.66425781 12.34570312 22.6875 11.25 C22.72166016 10.17105469 22.75582031 9.09210938 22.79101562 7.98046875 C22.87340663 5.32041623 22.94258645 2.66068965 23 0 C25.97 0 28.94 0 32 0 C32 11.88 32 23.76 32 36 C29.03 36 26.06 36 23 36 C22.505 33.525 22.505 33.525 22 31 C21.401875 31.825 20.80375 32.65 20.1875 33.5 C17.50251247 36.19268091 15.24598082 36.47334086 11.5 36.625 C7.43849785 36.44436715 6.24583246 36.18191602 2.875 33.6875 C-0.02126983 29.5361799 -0.12005363 26.53185276 -0.09765625 21.58203125 C-0.09443359 20.32841797 -0.09121094 19.07480469 -0.08789062 17.78320312 C-0.07951172 16.47287109 -0.07113281 15.16253906 -0.0625 13.8125 C-0.05748317 12.47721519 -0.05292059 11.14192859 -0.04882812 9.80664062 C-0.03702695 6.53771527 -0.02056297 3.26888009 0 0 Z " fill="#1378F3" transform="translate(443,200)"/>
<path d="M0 0 C12.21 0 24.42 0 37 0 C37 2.64 37 5.28 37 8 C32.38 8 27.76 8 23 8 C23 21.2 23 34.4 23 48 C20.03 48 17.06 48 14 48 C14 34.8 14 21.6 14 8 C9.38 8 4.76 8 0 8 C0 5.36 0 2.72 0 0 Z " fill="#0E76F3" transform="translate(203,188)"/>
<path d="M0 0 C4.12205246 2.00906759 5.90510789 3.92047327 8 8 C6.35 9.32 4.7 10.64 3 12 C0.53199953 10.84826645 -1.04783565 9.95216435 -3 8 C-6.93672752 7.38762016 -8.54330259 7.69222566 -11.875 9.9375 C-14.72210581 14.0406819 -14.82678673 17.14482684 -14 22 C-12.2880813 25.76398568 -12.2880813 25.76398568 -9 28 C-6.08461971 28.50042146 -6.08461971 28.50042146 -3 28 C-0.59593616 25.62157423 -0.59593616 25.62157423 1 23 C3.96175123 23.61277612 5.38058783 24.25372522 8 26 C6.9064183 29.82753594 5.20952955 32.57531806 2.0390625 35.05078125 C-3.41656479 37.59046982 -9.97970875 36.68545596 -15.5 34.8125 C-19.46343199 31.9390118 -22.12054641 28.50269094 -24 24 C-24.9302666 17.14540401 -24.71050896 11.25979089 -20.4609375 5.625 C-14.68899169 -0.79513224 -8.27943644 -1.15020957 0 0 Z " fill="#1379F3" transform="translate(303,200)"/>
<path d="M0 0 C7.59 0 15.18 0 23 0 C23 1.98 23 3.96 23 6 C18.05 6 13.1 6 8 6 C8 8.97 8 11.94 8 15 C12.29 15 16.58 15 21 15 C21 17.31 21 19.62 21 22 C16.71 22 12.42 22 8 22 C8 24.97 8 27.94 8 31 C12.62 31 17.24 31 22 31 C22.33 33.31 22.66 35.62 23 38 C15.41 38 7.82 38 0 38 C0 25.46 0 12.92 0 0 Z " fill="#FEFEFE" transform="translate(120,190)"/>
<path d="M0 0 C9.24 0 18.48 0 28 0 C28 2.31 28 4.62 28 7 C27.67 7.33 27.34 7.66 27 8 C24.03 8 21.06 8 18 8 C18 18.23 18 28.46 18 39 C15.36 39 12.72 39 10 39 C10 28.77 10 18.54 10 8 C6.7 8 3.4 8 0 8 C0 5.36 0 2.72 0 0 Z " fill="#F8F8FD" transform="translate(88,189)"/>
<path d="M0 0 C3.45293166 2.6088817 4.78669341 4.2667586 6 8.4375 C6 12.58956112 5.33117811 14.58093877 3 18 C-0.16814001 20.80606686 -1.72136194 21 -6 21 C-9.03785804 20.44766217 -10.32217206 19.78521863 -13 18 C-15.71046358 13.93430464 -15.93222059 10.75605133 -15 6 C-13.18906027 2.84762343 -11.74892353 1.43358731 -8.625 -0.375 C-5.27348387 -1.17298003 -3.29688018 -1.03027506 0 0 Z " fill="#FDFEFB" transform="translate(180,210)"/>
<path d="M0 0 C2.81027642 2.17618878 3.87831684 3.3414794 4.53125 6.875 C4.5209375 7.90625 4.510625 8.9375 4.5 10 C4.5103125 11.03125 4.520625 12.0625 4.53125 13.125 C3.87663311 16.66763259 2.82286879 17.82235836 0 20 C-3.5 21 -3.5 21 -7 21 C-9.41281883 19.15863826 -10.65150913 17.69698174 -12 15 C-12.93793682 5.31311155 -12.93793682 5.31311155 -10.125 1.375 C-6.25885346 -1.12662423 -4.52507816 -1.17652032 0 0 Z " fill="#F6FAFE" transform="translate(420,208)"/>
<path d="M0 0 C8.91 0 17.82 0 27 0 C26.67 1.65 26.34 3.3 26 5 C17.75 5 9.5 5 1 5 C0.67 3.35 0.34 1.7 0 0 Z " fill="#F0F7FE" transform="translate(104,256)"/>
<path d="M0 0 C2.63995097 0.07186799 3.79303107 0.14408192 6.0625 1.5625 C7.0625 3.3125 7.0625 3.3125 7.0625 7.3125 C2.4425 7.3125 -2.1775 7.3125 -6.9375 7.3125 C-5.56330645 0.44153226 -5.56330645 0.44153226 0 0 Z " fill="#FAFCFE" transform="translate(256.9375,206.6875)"/>
</svg>
